<mxfile host="app.diagrams.net" agent="Mozilla/5.0 (Windows NT 10.0; Win64; x64) AppleWebKit/537.36 (KHTML, like Gecko) Chrome/140.0.0.0 Safari/537.36" version="28.2.3">
  <diagram name="PÃ¡gina-1" id="YWYwoeP4mRuZ2OBto-2d">
    <mxGraphModel dx="1426" dy="777" grid="1" gridSize="10" guides="1" tooltips="1" connect="1" arrows="1" fold="1" page="1" pageScale="1" pageWidth="827" pageHeight="1169" background="#FAFFF8" math="0" shadow="1">
      <root>
        <mxCell id="0" />
        <mxCell id="1" parent="0" />
        <mxCell id="ZH_kPXTmaQF38pL4gd3C-5" style="edgeStyle=orthogonalEdgeStyle;rounded=0;orthogonalLoop=1;jettySize=auto;html=1;" edge="1" parent="1" source="ZH_kPXTmaQF38pL4gd3C-1" target="ZH_kPXTmaQF38pL4gd3C-4">
          <mxGeometry relative="1" as="geometry" />
        </mxCell>
        <mxCell id="ZH_kPXTmaQF38pL4gd3C-1" value="Inicio" style="ellipse;whiteSpace=wrap;html=1;fillColor=#dae8fc;strokeColor=#6c8ebf;strokeWidth=4;shadow=1;" vertex="1" parent="1">
          <mxGeometry x="354" y="140" width="120" height="80" as="geometry" />
        </mxCell>
        <mxCell id="ZH_kPXTmaQF38pL4gd3C-8" style="edgeStyle=orthogonalEdgeStyle;rounded=0;orthogonalLoop=1;jettySize=auto;html=1;entryX=0.5;entryY=0;entryDx=0;entryDy=0;" edge="1" parent="1" source="ZH_kPXTmaQF38pL4gd3C-4" target="ZH_kPXTmaQF38pL4gd3C-7">
          <mxGeometry relative="1" as="geometry" />
        </mxCell>
        <mxCell id="ZH_kPXTmaQF38pL4gd3C-4" value="Ler KmF, KmI, GasolinaGasta" style="shape=parallelogram;perimeter=parallelogramPerimeter;whiteSpace=wrap;html=1;fixedSize=1;fillColor=#e1d5e7;strokeColor=#9673a6;strokeWidth=4;shadow=1;" vertex="1" parent="1">
          <mxGeometry x="354" y="250" width="120" height="60" as="geometry" />
        </mxCell>
        <mxCell id="ZH_kPXTmaQF38pL4gd3C-10" value="" style="edgeStyle=orthogonalEdgeStyle;rounded=0;orthogonalLoop=1;jettySize=auto;html=1;" edge="1" parent="1" source="ZH_kPXTmaQF38pL4gd3C-7" target="ZH_kPXTmaQF38pL4gd3C-9">
          <mxGeometry relative="1" as="geometry" />
        </mxCell>
        <mxCell id="ZH_kPXTmaQF38pL4gd3C-7" value="&lt;font face=&quot;Times New Roman&quot;&gt;X&lt;/font&gt; = (100*GasolinaGasta)/KmF-KmI" style="rounded=0;whiteSpace=wrap;html=1;fillColor=#d5e8d4;strokeColor=#82b366;strokeWidth=4;shadow=1;" vertex="1" parent="1">
          <mxGeometry x="305" y="350" width="218" height="70" as="geometry" />
        </mxCell>
        <mxCell id="ZH_kPXTmaQF38pL4gd3C-12" value="" style="edgeStyle=orthogonalEdgeStyle;rounded=0;orthogonalLoop=1;jettySize=auto;html=1;" edge="1" parent="1" source="ZH_kPXTmaQF38pL4gd3C-9" target="ZH_kPXTmaQF38pL4gd3C-11">
          <mxGeometry relative="1" as="geometry" />
        </mxCell>
        <mxCell id="ZH_kPXTmaQF38pL4gd3C-9" value="Escrever &lt;font face=&quot;Times New Roman&quot;&gt;X&lt;/font&gt;" style="shape=parallelogram;perimeter=parallelogramPerimeter;whiteSpace=wrap;html=1;fixedSize=1;fillColor=#e1d5e7;strokeColor=#9673a6;strokeWidth=4;shadow=1;" vertex="1" parent="1">
          <mxGeometry x="354" y="450" width="120" height="60" as="geometry" />
        </mxCell>
        <mxCell id="ZH_kPXTmaQF38pL4gd3C-11" value="Fim" style="ellipse;whiteSpace=wrap;html=1;fillColor=#f8cecc;strokeColor=#b85450;strokeWidth=4;shadow=1;" vertex="1" parent="1">
          <mxGeometry x="354" y="550" width="120" height="80" as="geometry" />
        </mxCell>
      </root>
    </mxGraphModel>
  </diagram>
</mxfile>
